<svg xmlns="http://www.w3.org/2000/svg" aria-hidden="true"
     style="position:absolute;width:0;height:0;overflow:hidden">
  <defs>

    <!-- CLOSE -->
    <symbol id="icon-close" viewBox="0 0 32 32">
      <path fill="currentColor"
        d="M18.828 16l7.071-7.071a2 2 0 0 0-2.828-2.828L16 13.172 8.929 6.101A2 2 0 1 0 6.101 8.929L13.172 16l-7.071 7.071a2 2 0 0 0 2.828 2.828L16 18.828l7.071 7.071a2 2 0 0 0 2.828-2.828z"/>
    </symbol>

    <!-- PERSON -->
    <symbol id="icon-person" viewBox="0 0 32 32">
      <path fill="currentColor"
        d="M16 16c4.418 0 8-3.582 8-8s-3.582-8-8-8-8 3.582-8 8 3.582 8 8 8zm0 4c-5.33 0-16 2.67-16 8v2c0 1.104.896 2 2 2h28c1.104 0 2-.896 2-2v-2c0-5.33-10.67-8-16-8z"/>
    </symbol>

    <!-- PHONE -->
    <symbol id="icon-phone" viewBox="0 0 32 32">
      <path fill="currentColor"
        d="M28.865 21.822l-4.525-.517a3.543 3.543 0 0 0-2.921 1.015l-3.278 3.278A26.8 26.8 0 0 1 6.402 13.859l3.296-3.296a3.545 3.545 0 0 0 1.015-2.921l-.517-4.489A3.566 3.566 0 0 0 6.651 0H3.569C1.556 0-.118 1.675.006 3.687.95 18.9 13.117 31.049 28.312 31.993c2.013.125 3.687-1.55 3.687-3.563v-3.082c.018-1.799-1.336-3.313-3.135-3.527z"/>
    </symbol>

    <!-- EMAIL -->
    <symbol id="icon-email" viewBox="0 0 40 32">
      <path fill="currentColor"
        d="M36 0H4C1.8 0 .02 1.8.02 4L0 28c0 2.2 1.8 4 4 4h32c2.2 0 4-1.8 4-4V4c0-2.2-1.8-4-4-4zm-.8 8.5L21.06 17.34c-.64.4-1.48.4-2.12 0L4.8 8.5c-.5-.32-.8-.86-.8-1.44 0-1.34 1.46-2.14 2.6-1.44L20 14l13.4-8.38c1.14-.7 2.6.1 2.6 1.44 0 .58-.3 1.12-.8 1.44z"/>
    </symbol>

    <!-- CHECK -->
    <symbol id="icon-check" viewBox="0 0 16 16">
      <path fill="currentColor"
        d="M6.173 13.727L1.2 8.754l1.414-1.414 3.559 3.559 7.071-7.071 1.414 1.414z"/>
    </symbol>

    <!-- SEND (SUBSCRIBE) -->
    <symbol id="icon-send" viewBox="0 0 38 32">
      <path fill="currentColor"
        d="M38.4 0 0 18l12.272 3.788L31.2 7 16.803 23.186V32l6.882-6.691L32.401 28z"/>
    </symbol>

  </defs>
</svg>
